<mxfile host="app.diagrams.net" modified="2023-04-14T12:23:07.473Z" agent="Mozilla/5.0 (Windows NT 10.0; Win64; x64; rv:109.0) Gecko/20100101 Firefox/111.0" etag="9C_F-HQmO9qzVqLIwkV4" version="21.1.2" type="github">
  <diagram name="date and numbers" id="ctOic41lfCXOVWKaWNn0">
    <mxGraphModel dx="1434" dy="746" grid="1" gridSize="10" guides="1" tooltips="1" connect="1" arrows="1" fold="1" page="1" pageScale="1" pageWidth="850" pageHeight="1100" math="0" shadow="0">
      <root>
        <mxCell id="0" />
        <mxCell id="1" parent="0" />
        <mxCell id="2fYUgWHoPZwTo-GkhL_S-11" style="edgeStyle=orthogonalEdgeStyle;rounded=0;orthogonalLoop=1;jettySize=auto;html=1;" edge="1" parent="1" source="2fYUgWHoPZwTo-GkhL_S-1" target="2fYUgWHoPZwTo-GkhL_S-10">
          <mxGeometry relative="1" as="geometry">
            <Array as="points">
              <mxPoint x="450" y="260" />
              <mxPoint x="450" y="415" />
            </Array>
          </mxGeometry>
        </mxCell>
        <mxCell id="2fYUgWHoPZwTo-GkhL_S-1" value="شكوي مستلمه من وسيله عدا الجهات الحكوميه" style="shape=card;whiteSpace=wrap;html=1;" vertex="1" parent="1">
          <mxGeometry x="710" y="210" width="80" height="100" as="geometry" />
        </mxCell>
        <mxCell id="2fYUgWHoPZwTo-GkhL_S-9" style="edgeStyle=orthogonalEdgeStyle;rounded=0;orthogonalLoop=1;jettySize=auto;html=1;entryX=1;entryY=0.5;entryDx=0;entryDy=0;" edge="1" parent="1" source="2fYUgWHoPZwTo-GkhL_S-2" target="2fYUgWHoPZwTo-GkhL_S-6">
          <mxGeometry relative="1" as="geometry" />
        </mxCell>
        <mxCell id="2fYUgWHoPZwTo-GkhL_S-2" value="شكوي مستلمه من جهه حكوميه" style="shape=card;whiteSpace=wrap;html=1;" vertex="1" parent="1">
          <mxGeometry x="720" y="430" width="80" height="100" as="geometry" />
        </mxCell>
        <mxCell id="2fYUgWHoPZwTo-GkhL_S-3" value="لها رقم صادر من الجهه الخارجيه" style="text;html=1;strokeColor=none;fillColor=none;align=center;verticalAlign=middle;whiteSpace=wrap;rounded=0;" vertex="1" parent="1">
          <mxGeometry x="730" y="550" width="60" height="30" as="geometry" />
        </mxCell>
        <mxCell id="2fYUgWHoPZwTo-GkhL_S-8" style="edgeStyle=orthogonalEdgeStyle;rounded=0;orthogonalLoop=1;jettySize=auto;html=1;entryX=1;entryY=0.5;entryDx=0;entryDy=0;" edge="1" parent="1" source="2fYUgWHoPZwTo-GkhL_S-4" target="2fYUgWHoPZwTo-GkhL_S-6">
          <mxGeometry relative="1" as="geometry" />
        </mxCell>
        <mxCell id="2fYUgWHoPZwTo-GkhL_S-4" value="وارد خاص بشكوي" style="shape=note;whiteSpace=wrap;html=1;backgroundOutline=1;darkOpacity=0.05;" vertex="1" parent="1">
          <mxGeometry x="720" y="640" width="80" height="100" as="geometry" />
        </mxCell>
        <mxCell id="2fYUgWHoPZwTo-GkhL_S-12" style="edgeStyle=orthogonalEdgeStyle;rounded=0;orthogonalLoop=1;jettySize=auto;html=1;entryX=1;entryY=0.5;entryDx=0;entryDy=0;" edge="1" parent="1" source="2fYUgWHoPZwTo-GkhL_S-6" target="2fYUgWHoPZwTo-GkhL_S-10">
          <mxGeometry relative="1" as="geometry">
            <Array as="points">
              <mxPoint x="450" y="580" />
              <mxPoint x="450" y="415" />
            </Array>
          </mxGeometry>
        </mxCell>
        <mxCell id="2fYUgWHoPZwTo-GkhL_S-6" value="دفتر الوارد الخاص بالنيابه الاداريه" style="whiteSpace=wrap;html=1;aspect=fixed;" vertex="1" parent="1">
          <mxGeometry x="530" y="520" width="120" height="120" as="geometry" />
        </mxCell>
        <mxCell id="2fYUgWHoPZwTo-GkhL_S-7" value="يتم تسجيل رقم وارد دفتري مسلسل برقم وتاريخ" style="text;html=1;strokeColor=none;fillColor=none;align=center;verticalAlign=middle;whiteSpace=wrap;rounded=0;" vertex="1" parent="1">
          <mxGeometry x="535" y="660" width="110" height="30" as="geometry" />
        </mxCell>
        <mxCell id="2fYUgWHoPZwTo-GkhL_S-10" value="منظومه الشكاوي" style="rounded=1;whiteSpace=wrap;html=1;" vertex="1" parent="1">
          <mxGeometry x="130" y="250" width="250" height="330" as="geometry" />
        </mxCell>
        <mxCell id="2fYUgWHoPZwTo-GkhL_S-13" value="&lt;div&gt;من حيث الشكاوي&lt;/div&gt;&lt;div&gt;&lt;font color=&quot;#ff0505&quot;&gt;عند البدء التسجيل&lt;/font&gt;&lt;br&gt;تاريخ تسجيل الشكوي من لاحظه انشاء السجل داخل النظام وقبل ارساله&lt;/div&gt;&lt;div&gt;&lt;font color=&quot;#ff1900&quot;&gt;من حيث المرجعيه الدفتريه لوارد النيابه&lt;/font&gt;&lt;br&gt;يتم تسجيل رقم وارد الدفتري وتاريخ الوارد الدفتري&lt;br&gt;&lt;/div&gt;&lt;div&gt;&lt;font color=&quot;#ff0505&quot;&gt;خلال عمليه التسجيل&lt;/font&gt;&lt;/div&gt;&lt;div&gt;اذا كان طريقه الورود جهه خاريجيه يتم تسجيل رقم صادر الجهه وتاريخ صادر الجهه&lt;/div&gt;&lt;div&gt;&lt;font color=&quot;#ff0505&quot;&gt;عند الانتهاء من عمليه التسجيل وارسال الشكوي&lt;/font&gt;&lt;/div&gt;&lt;div&gt;رقم ورود الشكوي يتم انشاءه&lt;br&gt;&lt;/div&gt;&lt;div&gt;تاريخ وارد الشكوي هو تاريخ انهاء &lt;br&gt;&lt;/div&gt;" style="text;html=1;strokeColor=none;fillColor=none;align=center;verticalAlign=middle;whiteSpace=wrap;rounded=0;" vertex="1" parent="1">
          <mxGeometry x="75" y="560" width="360" height="190" as="geometry" />
        </mxCell>
      </root>
    </mxGraphModel>
  </diagram>
</mxfile>
